<svg height="272" viewBox="0 0 634 272" width="634" xmlns="http://www.w3.org/2000/svg"><g fill="#ffd700" fill-rule="evenodd" transform=""><path d="m400.175033 192.017748c.013016-2.028259.024029-4.302398.038047-6.580552.010012-2.007183.019023-4.018381.022027-5.859972l11.200746.057204c6.4369.035126 16.122787.088317 18.010103.625238 2.410959 1.466248 3.754608 3.733362 3.60943 6.081766-.080098 1.268541-.682838 3.600888-3.825695 4.968784-1.75215.762729-4.545579 1.000581-18.592818 1.000581-4.455469 0-7.893688-.129464-10.46184-.293049zm233.824967-53.017748h-8.030856-73.890684c-16.0517 0-25.546352 6.350729-30.684659 11.678798-8.356255 8.664008-10.324671 19.574054-10.173485 24.717462.00801.428534.003004.868107-.002003 1.326749-.073089 8.358916 1.155418 17.821783 16.678469 33.365413 3.069768 3.464399 8.204069 9.272184 10.143449 12.158514-4.242206.522872-14.997406.522872-26.293269.522872h-4.797888l-5.823147-.002007c-19.928457 0-36.733081-.057205-40.178309-.738644-.48059-.315128-1.15642-.857067-1.899331-1.503381 6.88545-4.250211 13.846994-10.837787 17.124015-16.470948 1.990443-3.425259 4.184135-9.276199 5.105266-13.616734 2.042507-9.659571-1.326628-21.312275-9.01206-31.17959-8.967005-11.512201-22.012015-18.399852-35.789924-18.897634l-.14618-.006021h-.144177-34.832749-45.327629-8.024849l.015018 8.045795.222273 115.391982.01602 7.977551 7.958767.035126 35.942111.159571 7.998817.035126.046056-8.016691.156192-26.801923c.733901.6985 1.492832 1.424097 2.270787 2.172776 24.257771 23.323474 32.399763 29.785601 39.611614 31.420452 1.980431.442584 5.259455 1.17621 63.601056 1.192267h2.782415c31.583762 0 47.437218 0 56.867792-.913268 10.802258-1.046746 14.277523-3.502535 19.485915-7.752747l.173212-.141506c10.69813-8.718202 16.342056-21.908409 14.733082-34.423199-1.049288-8.138126-3.197925-11.52023-11.93665-22.448341l-2.598188-3.251638c-3.042735-3.812645-6.721249-8.417124-9.185273-11.516216-1.988441-2.491918-3.550357-4.705842-4.492514-6.155028 1.237519-.003011 2.844491-.005018 4.924043-.005018 16.415146 0 48.947072.108388 49.273472.111398l8.01784.02509.019024-8.036763.076093-30.414853zm-223.364129 61.339531c15.388887 0 18.51272-.239858 21.788741-1.665962 11.053566-4.817241 11.644291-19.047169 1.041278-25.361769-2.32185-1.38596-5.306513-1.614779-21.986984-1.706106l-19.30269-.100359c.159196.149535-.061075 27.668022-.061075 27.668022s4.833933 1.166174 18.52073 1.166174zm215.335275-53.310797-.076093 30.41385s-32.68211-.109392-49.298503-.109392c-5.527784 0-9.278387.013047-9.455604.045162-2.864516.522871-4.686752 6.625713-3.874756 9.3043.399491 1.354849 3.395167 5.780688 6.637146 9.845235 3.233969 4.065551 8.551495 10.719364 11.795476 14.781904 8.329222 10.418286 9.471624 12.474646 10.241569 18.457057 1.251536 9.715772-3.33309 20.232411-11.843535 27.16723-8.528467 6.954891-8.155008 7.004067-71.471715 7.004067h-2.779411c-38.507259-.010036-58.872253-.330182-61.836891-.992552-5.266463-1.194274-13.656761-8.057839-35.833978-29.384165-7.977791-7.66443-15.327811-14.374445-15.705275-14.376452-.010012 0-.015018.006021-.015018.016057l-.261321 44.739119-35.943112-.159571-.221271-115.392985h45.326628 34.832749c24.15965.874128 40.509716 24.999472 37.255723 40.384534-.741911 3.491496-2.623219 8.551606-4.186138 11.240228-3.213944 5.519755-11.393983 12.605113-18.033131 15.647-2.452009 1.11198-4.454467 2.406613-4.454467 2.868265 0 1.716142 8.070905 9.683657 11.093615 10.949187 2.582169 1.082875 10.102398 1.324741 43.263096 1.324741 3.88677 0 7.416101.001004 10.621034.001004 33.332909 0 31.656852-.240863 34.232012-5.761621 1.803213-3.843757.43153-6.141982-12.254039-20.463237-16.070723-16.028365-14.387657-23.704838-14.497792-29.376136-.229282-6.794316 5.108269-28.169818 32.852318-28.169818z"/><path d="m247.083628 211.083312c1.514257-4.125687 3.554257-9.702209 6.323898-17.275128.868574-2.374093 1.663185-4.547348 2.391827-6.539748.662675 1.95443 1.384321 4.080723 2.167937 6.392866.645683 1.904471 3.483292 10.26176 5.917098 17.414016-7.236451 0-12.683779.001-16.80076.007994zm41.102841-73.083312-5.690209.004996-54.56324.050959-5.693208.004996-1.858088 5.381678-39.7605 115.136542-3.621224 10.48558 11.096558.115907 32.484068.339727 6.030043.06295 1.718157-5.776362 3.464301-11.652642 46.831032.374699 3.706182 11.837494 1.764135 5.633476 5.904104-.025979 32.812907-.14988 11.188513-.051958-3.673198-10.565516-40.27025-115.826987zm-32.07227 24.98094c-.08296.332732-5.141479 14.20759-10.216989 28.081449-5.11749 13.988767-10.251972 27.977533-10.322938 28.086446 0 .000999-.000999.000999 0 .000999v-.000999c.135934-.039968 18.307022-.079936 29.95331-.079936 5.450327 0 9.470355.008993 9.545319.028977.000999.003997.000999.004996.000999.004996v-.002998l-.000999-.001998c-.2039-.528576-18.899731-55.441479-18.958702-56.116936.000999-.003997.000999-.004996.000999-.004996-.000999 0-.000999.000999-.000999.004996zm26.388058-16.982363 40.270249 115.826987-32.813906.150879-5.447328-17.397029-58.671225-.470623-5.177461 17.417014-32.484068-.339727 39.760499-115.137541z"/><path d="m2 139 3.59187371 10.580393 39.08070309 115.108758 1.8403241 5.423152h5.7144805 22.5726471 5.5838126l1.913139-5.259207 17.6401796-48.483472c1.5201373 4.433489 3.1629633 9.20986 4.8057893 13.984233 6.073568 17.648983 12.160103 35.264977 12.160103 35.264977l1.859276 5.381166h5.681565 22.802064 5.697523l1.849302-5.401159 39.579436-115.579598 3.627782-10.593388h-11.175605-32.806644-5.691539l-1.853291 5.393161c-2.966463 8.633057-6.90346 20.025173-10.269906 29.666887-.50771-1.462502-1.036367-2.999978-1.582978-4.609429l-8.64703-25.451323-1.841321-5.419153h-5.712486-36.6568615-5.6516402l-1.8762328 5.343178-10.4265082 29.695877c-3.4442488-9.702692-7.4371037-21.009838-10.4893485-29.680882l-1.8772303-5.332182-5.642663-.004998-32.6470498-.019993zm116.4192 8.004271 8.648027 25.452323c4.679111 13.762309 8.856497 24.770556 9.401114 24.770556.008977 0 .016957-.003999.023939-.010996.598479-.52882 17.525471-49.793026 17.525471-49.793026h32.806644l-39.579436 115.579598h-22.802064s-24.338161-70.446984-24.238415-70.714892l-25.405449 69.827195h-22.572647l-39.0807031-115.111757 32.6470498.020992s17.8835612 50.804681 18.1219555 50.804681c.0009974 0 .0009974-.001.0019949-.002l17.84466-50.823673h36.6578589z"/><path d="m505.221976 40.1681409h9.887276c13.994835 0 16.76846.2327513 18.476534.9799527 3.242548 1.4064969 3.571791 2.0887678 3.826206 4.9517081.255413 2.8449596-.097775 3.9897362-2.915299 6.1054751-.093785.0689263-.163624.1228687-.223487.1658228-1.859725.3446317-8.765853.3446317-17.405995.3446317h-11.64324zm-2.535173-39.1681409h-41.705148-7.981655v7.99145951 115.01708049 7.99146h7.981655 36.958058 8.009591l-.027935-8.01943-.087799-25.18908.838074.798147c24.928705 23.747621 32.282803 29.141856 37.133654 30.788097 3.723443 1.257656 9.958113 1.622266 44.085676 1.622266h37.974721 8.134305l-.154645-8.145295-.607603-31.6461798-.148658-7.7257434-7.715268-.1108815-59.266785-.8500915-1.242145-.9659677c-.394094-.3086701-.873991-.7162346-1.384817-1.1777414.444977-.2637181.851044-.5064587 1.204232-.7162345 14.968597-8.9434421 22.813567-23.3820116 21.519541-39.610668-.861021-10.9473006-2.813534-15.8790301-9.499168-23.9743785-6.568902-7.96049264-15.58518-13.2838036-25.388648-14.98898127-5.44748-.94598902-32.805601-1.08783743-48.629233-1.08783743zm-5.446482 59.7061919h19.62689c19.096111 0 19.69274-.059936 22.418475-2.1077475 4.86881-3.6560927 6.592847-7.422068 6.076035-13.2058868-.528785-5.9636267-2.82351-9.0703066-8.580279-11.5676377-3.242548-1.418484-6.367366-1.6482385-21.67219-1.6482385h-17.868931zm5.446482-51.71473239c25.861561 0 43.808313.369605 47.260379.96896446 7.981656 1.38851613 15.196074 5.65395763 20.602648 12.20695443 5.656999 6.8526765 6.954018 10.1291749 7.692321 19.5191398 1.059564 13.2558335-5.237962 24.6936099-17.659413 32.1156779-3.621676 2.1676834-7.341128 4.2754309-8.27099 4.6949825-1.425724.6493061-1.235162 1.2686442 1.31797 4.2654415 1.645219 1.9279396 4.498661 4.6750038 6.334442 6.1034772l3.352295 2.6072137 61.938644.8890498.607603 31.6461792h-37.974721c-29.370496 0-38.770891-.269711-41.524562-1.198718-4.12053-1.398506-14.035741-9.809517-34.191417-29.0089985l-14.386933-13.705353.150653 43.9130695h-36.958057v-115.01708049z"/><path d="m353.643397 74.4500839c2.475251-7.0120198 5.918947-16.6214904 9.037823-25.2580396 2.955464 8.6255726 6.22472 18.2061051 8.609743 25.2360865zm41.500803-73.4500839h-5.713429-55.33975-5.714431l-1.864709 5.37850955-39.841612 114.89554145-3.670269 10.587381h11.252416 33.455486 5.903909l1.75443-5.611012 3.46876-11.097293 46.750059.206559 3.608111 11.7489 1.72636 5.617 5.900902.03293 32.853966.179616 11.325601.061868-3.701347-10.653241-40.280722-115.97224092zm-52.641938 81.4469996 39.900762-.0498934c.001003 0 .001003.0009979.001003.0009979.136344 0-19.389966-57.0790584-19.520295-57.1189732-.143362-.0049893-20.832609 57.1678687-20.38147 57.1678687zm46.928509-73.46405407 40.281724 115.97224147-32.852964-.179617-5.333468-17.372885-58.585948-.259446-5.235221 16.73425h-33.453481l39.839608-114.89454347z"/><path d="m305 0-8.02405.01199255-181.810361.26983238c-10.472421 0-20.1988151 4.5151951-27.3797035 12.71410187-5.8220172 6.6478702-9.6432793 15.4194212-10.2200736 23.4624248-.9743417 13.502612 2.1399468 18.3815812 17.0795194 35.1801457 4.3359708 4.8739722 8.4586477 9.5100922 9.8345427 11.4788692-.02203.0789509-.042058.1299193-.054075.1589013-.01502.0119925-.038052.0299813-.070096.0519677l-.823134.5716449h-95.52153742-8.01103158v7.9950334 32.1100532 7.995033h8.01103158 62.35586712 4.9438078 4.4611433c28.5613302 0 42.6587432-.026983 50.9641802-.634606 9.503086-.694568 12.535262-2.321558 17.077517-5.136809l.56678-.350782c14.281667-8.815524 21.641802-29.8084824 15.443266-44.0466375-1.912634-4.3552945-14.022309-19.7337412-15.397203-21.4726609-3.801234-4.8040157-10.075875-12.7320907-11.069242-15.0266653.024033-.1928802.071097-.392756.121166-.5316697.165228-.0419739.481664-.0979392 1.002381-.0979392l58.941165-.1668963v79.4676339 7.995033h8.011031 34.197091 8.011032v-7.995033-79.4206631h49.347954 8.011032v-7.9950334-28.58224432zm-8.011032 8.00702594v28.58224436h-57.358986v87.4156967h-34.197091v-87.4856532l-66.952196.189882c-8.071115 0-9.152604 6.4160143-9.152604 8.8744871 0 3.0181251 1.972717 6.0362502 12.807637 19.7277448 7.02968 8.8944747 13.488574 17.7689618 14.339746 19.7077574 4.646399 10.6733695-1.361875 27.3030389-12.306947 34.0588419-7.800742 4.810012-6.467906 4.927939-64.3966772 4.927939h-9.4049511-62.35586712v-32.1100529h98.03499942l2.893985-2.0087521c1.952689-1.3591557 3.084247-3.2279947 3.51484-5.7864054.600827-3.6777154.2904-4.1574174-11.816272-17.7689617-14.3097049-16.0900047-15.8217871-19.0281795-15.0807667-29.3017974.8411583-11.7227177 11.3155821-28.75213881 29.6207897-28.75213881z"/></g></svg>